# AST/ASF file generated using VICON BodyLanguage
# -----------------------------------------------
:version 1.10
:name VICON
:units
  mass 1.0
  length 0.45
  angle deg
:documentation
   .ast/.asf automatically generated from VICON data using
   VICON BodyBuilder and BodyLanguage model FoxedUp or BRILLIANT.MOD
:root
   order TX TY TZ RX RY RZ
   axis XYZ
   position 0 0 0  
   orientation 0 0 0 
:bonedata
  begin
     id 1 
     name lhipjoint
     direction 0.661853 -0.702389 0.261917 
     length 2.64193 
     axis 0 0 0  XYZ
  end
  begin
     id 2 
     name lfemur
     direction 0.34202 -0.939693 0  
     length 7.01722  
     axis 0 0 20  XYZ
    dof rx ry rz
    limits (-160.0 20.0)
           (-70.0 70.0)
           (-60.0 70.0)
  end
  begin
     id 3 
     name ltibia
     direction 0.34202 -0.939693 0   
     length 8.25008   
     axis 0 0 20   XYZ
    dof rx
    limits (-10.0 170.0)
  end
  begin
     id 4 
     name lfoot
     direction 0.0709916 -0.195048 0.978221   
     length 2.31941   
     axis -90 7.62852e-016 20   XYZ
    dof rx rz
    limits (-45.0 90.0)
           (-70.0 20.0)
  end
  begin
     id 5 
     name ltoes
     direction 1.53586e-011 -4.22017e-011 1   
     length 1.16486   
     axis -90 7.62852e-016 20   XYZ
    dof rx
    limits (-90.0 20.0)
  end
  begin
     id 6 
     name rhipjoint
     direction -0.638185 -0.721362 0.268992   
     length 2.57244  
     axis 0 0 0  XYZ 
  end
  begin
     id 7 
     name rfemur
     direction -0.34202 -0.939693 0   
     length 7.07017   
     axis 0 0 -20   XYZ
    dof rx ry rz
    limits (-160.0 20.0)
           (-70.0 70.0)
           (-70.0 60.0)
  end
  begin
     id 8 
     name rtibia
     direction -0.34202 -0.939693 0   
     length 8.20386   
     axis 0 0 -20   XYZ
    dof rx
    limits (-10.0 170.0)
 end
 begin
     id 9 
     name rfoot
     direction -0.0822429 -0.225961 0.970658   
     length 2.32215  
     axis -90 -7.62852e-016 -20   XYZ
    dof rx rz
    limits (-45.0 90.0)
           (-20.0 70.0)
  end
  begin
     id 10 
     name rtoes
     direction -1.53597e-011 -4.21689e-011 1   
     length 1.16333   
     axis -90 -7.62852e-016 -20   XYZ
    dof rx
    limits (-90.0 20.0)
  end
  begin
     id 11 
     name lowerback
     direction -0.0131557 0.998589 -0.0514484   
     length 2.14993   
     axis 0 0 0   XYZ
    dof rx ry rz
    limits (-20.0 45.0)
           (-30.0 30.0)
           (-30.0 30.0)
  end
  begin
     id 12 
     name upperback
     direction -0.000776481 0.999993 0.00352685   
     length 2.15301   
     axis 0 0 0   XYZ
    dof rx ry rz
    limits (-20.0 45.0)
           (-30.0 30.0)
           (-30.0 30.0)
  end
  begin
     id 13 
     name thorax
     direction 0.00438186 0.999609 0.0276143   
     length 2.15424   
     axis 0 0 0   XYZ
    dof rx ry rz
    limits (-20.0 45.0)
           (-30.0 30.0)
           (-30.0 30.0)
  end
  begin
     id 14 
     name lowerneck
     direction -0.0488006 0.998094 0.0377807   
     length 1.90481   
     axis 0 0 0   XYZ
    dof rx ry rz
    limits (-20.0 45.0)
           (-30.0 30.0)
           (-30.0 30.0)
  end
  begin
     id 15 
     name upperneck
     direction 0.0443769 0.990702 -0.12861   
     length 1.91305   
     axis 0 0 0   XYZ
    dof rx ry rz
    limits (-20.0 45.0)
           (-30.0 30.0)
           (-30.0 30.0)
  end
  begin
     id 16
     name head
     direction 0.0165599 0.998647 -0.0492982  
     length 1.92369  
     axis 0 0 0   XYZ
    dof rx ry rz
    limits (-20.0 45.0)
           (-30.0 30.0)
           (-30.0 30.0)
  end
  begin
     id 17 
     name lclavicle
     direction 0.911936 0.410197 -0.0105506  
     length 3.52622  
     axis 0 0 0   XYZ
    dof ry rz
    limits (-20.0 10.0)
           (0.0 20.0)
  end
  begin
     id 18 
     name lhumerus
     direction 1 -4.48974e-011 -2.48591e-028   
     length 5.47651   
     axis 180 -30 -90   XYZ
    dof rx ry rz
    limits (-60.0 90.0)
           (-90.0 90.0)
           (-90.0 90.0)
  end
  begin
     id 19
     name lradius
     direction 1 -4.48938e-011 -4.40099e-027   
     length 3.09058   
     axis 180 -30 -90   XYZ
    dof rx
    limits (-10.0 170.0)
  end
  begin
     id 20
     name lwrist
     direction 1 -4.49042e-011 -2.99852e-027   
     length 1.54529   
     axis 1.95339e-015 90 90   XYZ
    dof ry
    limits (-180.0 0.0)
 end
  begin
     id 21 
     name lhand
     direction 1 -4.48815e-011 -5.98193e-027   
     length 0.771611   
     axis 3.82337e-015 90 90   XYZ
    dof rx rz
    limits (-90.0 90.0)
           (-45.0 45.0)
  end
  begin
     id 22 
     name lfingers
     direction 1 -4.49034e-011 -1.1993e-026   
     length 0.622093   
     axis 7.64668e-015 90 90   XYZ
    dof rx
    limits (0.0 90.0)
  end
  begin
     id 23
     name lthumb
     direction 0.707107 -6.34867e-011 0.707107   
     length 0.893204   
     axis -90 45 -1.62303e-014   XYZ
    dof rx rz
    limits (-45.0 45.0)
           (-45.0 45.0)
  end
  begin
     id 24 
     name rclavicle
     direction -0.93442 0.355634 -0.0195692   
     length 3.62463  
     axis 0 0 0   XYZ 
    dof ry rz
    limits (-10.0 20.0)
           (-20.0 0.0)
  end
  begin
     id 25 
     name rhumerus
     direction -1 -4.48957e-011 -1.19147e-027  
     length 5.14182   
     axis 180 30 90   XYZ
    dof rx ry rz
    limits (-90.0 60.0)
           (-90.0 90.0)
           (-90.0 90.0)
  end
  begin
     id 26 
     name rradius
     direction -1 -4.48952e-011 -3.81062e-027   
     length 3.35565   
     axis 180 30 90   XYZ
    dof rx
    limits (-10.0 170.0)
  end
  begin
     id 27 
     name rwrist
     direction -1 -4.48973e-011 -2.99621e-027   
     length 1.67782   
     axis 1.95339e-015 -90 -90   XYZ
    dof ry
    limits (-180.0 0.0)
  end
  begin
     id 28
     name rhand
     direction -1 -4.48895e-011 -5.98727e-027   
     length 0.801042   
     axis 3.82337e-015 -90 -90   XYZ
    dof rx rz
    limits (-90.0 90.0)
           (-45.0 45.0)
  end
  begin
     id 29
     name rfingers
     direction -1 -4.49065e-011 -1.19972e-026   
     length 0.645821   
     axis 7.64668e-015 -90 -90   XYZ
    dof rx
    limits (0.0 90.0)
  end
  begin
     id 30
     name rthumb
     direction -0.707107 -6.34957e-011 0.707107   
     length 0.927273   
     axis -90 -45 1.62303e-014   XYZ
    dof rx rz
    limits (-45.0 45.0)
           (-45.0 45.0)
  end
:hierarchy
  begin
    root lhipjoint rhipjoint lowerback
    lhipjoint lfemur
    lfemur ltibia
    ltibia lfoot
    lfoot ltoes
    rhipjoint rfemur
    rfemur rtibia
    rtibia rfoot
    rfoot rtoes
    lowerback upperback
    upperback thorax
    thorax lowerneck lclavicle rclavicle
    lowerneck upperneck
    upperneck head
    lclavicle lhumerus
    lhumerus lradius
    lradius lwrist
    lwrist lhand lthumb
    lhand lfingers
    rclavicle rhumerus
    rhumerus rradius
    rradius rwrist
    rwrist rhand rthumb
    rhand rfingers
  end

#!OML:ASF E:\Style4\Style4.ASF
:FULLY-SPECIFIED
:DEGREES
197
root -0.157028 17.9639 -0.851507 0.654722 -0.469357 1.74902
lowerback 4.65831 2.41328 -0.264697
upperback 0.863568 3.19799 -0.166745
thorax -1.72558 1.59686 -0.216765
lowerneck -2.03688 -4.9272 -5.75245
upperneck 8.53549 -6.59933 3.4616
head 3.48268 -3.33438 1.8977
rclavicle -4.22169e-014 9.14409e-015
rhumerus -49.0272 23.1985 -97.4131
rradius 94.1471
rwrist -27.4346
rhand -26.6687 32.2347
rfingers 7.12502
rthumb -0.10006 2.25498
lclavicle -4.22169e-014 9.14409e-015
lhumerus -50.5098 -31.6374 101.359
lradius 96.9316
lwrist 17.1093
lhand -14.4907 18.0435
lfingers 7.12502
lthumb 11.656 47.6993
rfemur -7.9042 5.0505 17.4744
rtibia 25.2485
rfoot -16.9971 -13.938
rtoes -10.9095
lfemur -6.15608 -4.35875 -20.2529
ltibia 22.5123
lfoot -17.2524 10.6384
ltoes -14.8332
198
root -0.157476 17.9635 -0.848797 0.695667 -0.455313 1.77643
lowerback 4.6228 2.42773 -0.278513
upperback 0.85542 3.2163 -0.19024
thorax -1.71351 1.60606 -0.232774
lowerneck -2.10199 -4.94603 -5.71046
upperneck 8.5607 -6.62233 3.44415
head 3.50227 -3.34449 1.88171
rclavicle -9.51682e-015 4.77083e-015
rhumerus -49.0055 23.1738 -97.4258
rradius 94.1881
rwrist -27.4579
rhand -26.6291 32.3359
rfingers 7.12502
rthumb -0.0618751 2.35614
lclavicle -9.51682e-015 4.77083e-015
lhumerus -50.5553 -31.7384 101.409
lradius 96.8853
lwrist 17.1117
lhand -14.4654 18.0271
lfingers 7.12502
lthumb 11.6803 47.6815
rfemur -7.93907 5.05763 17.439
rtibia 25.2434
rfoot -17.0469 -13.9179
rtoes -10.7308
lfemur -6.20578 -4.36077 -20.2827
ltibia 22.5314
lfoot -17.2282 10.7209
ltoes -15.4719
199
root -0.157868 17.9635 -0.846387 0.674543 -0.425043 1.77716
lowerback 4.68624 2.43476 -0.274202
upperback 0.829946 3.22537 -0.196896
thorax -1.77447 1.61045 -0.246284
lowerneck -2.08462 -4.95044 -5.69033
upperneck 8.57112 -6.63037 3.44308
head 3.50199 -3.34807 1.87771
rclavicle 3.78436e-014 7.35503e-015
rhumerus -49.0531 23.146 -97.465
rradius 94.2216
rwrist -27.4792
rhand -26.5174 32.4109
rfingers 7.12502
rthumb 0.0460184 2.43113
lclavicle 3.78436e-014 7.35503e-015
lhumerus -50.6638 -31.7924 101.501
lradius 96.826
lwrist 17.1077
lhand -14.5724 18.1275
lfingers 7.12502
lthumb 11.5771 47.7877
rfemur -7.90266 5.03652 17.4398
rtibia 25.2495
rfoot -17.1263 -13.8811
rtoes -10.344
lfemur -6.1716 -4.37509 -20.2836
ltibia 22.5366
lfoot -17.297 10.7768
ltoes -15.9548
200
root -0.158643 17.9629 -0.844685 0.645347 -0.410178 1.77841
lowerback 4.76594 2.40989 -0.32985
upperback 0.799751 3.18967 -0.160313
thorax -1.85516 1.5929 -0.180292
lowerneck -2.04295 -4.91499 -5.70705
upperneck 8.56499 -6.58071 3.40464
head 3.48815 -3.32574 1.871
rclavicle -2.05742e-014 -3.57812e-015
rhumerus -49.1126 23.2627 -97.5039
rradius 94.2428
rwrist -27.5179
rhand -26.4688 32.478
rfingers 7.12502
rthumb 0.0929673 2.49832
lclavicle -2.05742e-014 -3.57812e-015
lhumerus -50.7527 -31.7327 101.585
lradius 96.7697
lwrist 17.1332
lhand -14.704 18.1664
lfingers 7.12502
lthumb 11.4502 47.8337
rfemur -7.85429 5.03081 17.4476
rtibia 25.2703
rfoot -17.1305 -13.903
rtoes -10.4349
lfemur -6.12474 -4.37719 -20.2833
ltibia 22.5214
lfoot -17.2967 10.6869
ltoes -15.5658
201
root -0.15935 17.962 -0.842859 0.630016 -0.423485 1.77832
lowerback 4.80038 2.40374 -0.359455
upperback 0.799849 3.18012 -0.14314
thorax -1.87688 1.58831 -0.147241
lowerneck -2.03879 -4.90662 -5.68584
upperneck 8.53824 -6.56774 3.37497
head 3.47486 -3.31958 1.85805
rclavicle 7.58364e-014 -1.35174e-014
rhumerus -49.1039 23.3731 -97.5373
rradius 94.2583
rwrist -27.486
rhand -26.6069 32.5281
rfingers 7.12502
rthumb -0.0404638 2.54835
lclavicle 7.58364e-014 -1.35174e-014
lhumerus -50.7638 -31.7241 101.615
lradius 96.6922
lwrist 17.1694
lhand -14.7299 18.1237
lfingers 7.12502
lthumb 11.4253 47.7924
rfemur -7.83783 5.02097 17.4546
rtibia 25.2887
rfoot -17.12 -13.9082
rtoes -10.5744
lfemur -6.0996 -4.35316 -20.2805
ltibia 22.5109
lfoot -17.2856 10.6356
ltoes -15.1561
202
root -0.159942 17.9606 -0.841376 0.656108 -0.422514 1.83263
lowerback 4.78712 2.421 -0.415315
upperback 0.791319 3.19978 -0.169424
thorax -1.87981 1.59841 -0.143909
lowerneck -2.05837 -4.9237 -5.677
upperneck 8.54183 -6.59383 3.41756
head 3.4829 -3.33058 1.86915
rclavicle -4.14963e-015 5.1684e-015
rhumerus -49.1238 23.3719 -97.5766
rradius 94.3274
rwrist -27.3505
rhand -26.7858 32.4118
rfingers 7.12502
rthumb -0.213182 2.43219
lclavicle -4.14963e-015 5.1684e-015
lhumerus -50.7854 -31.7999 101.645
lradius 96.5892
lwrist 17.1673
lhand -14.6856 18.1074
lfingers 7.12502
lthumb 11.468 47.7737
rfemur -7.8857 5.01605 17.3905
rtibia 25.3089
rfoot -17.1487 -13.9132
rtoes -10.5112
lfemur -6.12135 -4.34511 -20.3383
ltibia 22.5163
lfoot -17.334 10.6214
ltoes -15.1583
203
root -0.159595 17.9598 -0.840695 0.647199 -0.409736 1.83312
lowerback 4.80203 2.42543 -0.398123
upperback 0.811603 3.20626 -0.181482
thorax -1.86568 1.6015 -0.166346
lowerneck -2.13346 -4.94089 -5.65812
upperneck 8.54261 -6.61451 3.4239
head 3.49802 -3.33927 1.86531
rclavicle -2.99419e-014 1.19271e-014
rhumerus -49.1323 23.3766 -97.6129
rradius 94.4239
rwrist -27.2694
rhand -26.7691 32.3685
rfingers 7.12502
rthumb -0.197051 2.38889
lclavicle -2.99419e-014 1.19271e-014
lhumerus -50.7825 -31.882 101.662
lradius 96.4971
lwrist 17.0953
lhand -14.7419 18.0324
lfingers 7.12502
lthumb 11.4137 47.7018
rfemur -7.89877 5.00814 17.3896
rtibia 25.3421
rfoot -17.1233 -13.9563
rtoes -10.6587
lfemur -6.11236 -4.37264 -20.3425
ltibia 22.5226
lfoot -17.3165 10.6199
ltoes -15.2612
